<svg version="1.0" xmlns="http://www.w3.org/2000/svg" width="933.333" height="933.333" viewBox="0 0 700 700">
    <path
        d="M284 1.3c-10.3 3-11.8 4.3-67 59.3l-54.5 54.3-58.5.3c-65.3.4-63.6.3-74 7.5-7.2 5.1-12.6 12.3-15 20.3-2 6.4-2 9.2-1.8 200l.3 193.5 2.7 5.7c5.2 11.2 16.5 20.2 28.6 22.7 3.7.8 37.9 1.1 112.7 1.1H265v22h-12.2c-18.8.1-24.8 2.2-28.8 10-2.4 4.7-2.6 12.9-.6 16.8.8 1.5 19.4 20.6 41.3 42.4 39.4 39.3 43.4 42.8 49.5 42.8 8 0 8.7-.6 50.1-41.8 40.3-40.2 43.7-44.2 43.7-51 0-4.1-2.4-9.9-5.3-13-4.4-4.8-7.3-5.5-22.9-6l-14.8-.4V566.1l110.3-.3c102.9-.3 110.5-.4 114.7-2.1 11-4.3 19.9-13.1 24.3-24 2.1-4.9 2.2-7.1 2.5-44.4l.3-39.1 18.8-.4 18.7-.3 7.6-3.8c8.1-4 16.2-11.6 19.8-18.6 5.1-10.1 5.1-10.3 4.8-77.2l-.3-62.4-3.3-6.8c-6.3-12.8-18.5-21.7-32.4-23.7-3.5-.5-12.5-1-20-1H617v-54.5c0-36.5-.4-56.1-1.1-59.7-3.6-16.8-17-29.4-34.2-31.9-3.4-.5-21.8-.9-40.8-.9h-34.5l-23.5-40.7c-16.5-28.7-24.7-42-28-45.2-11.6-11.7-30.6-14.8-45.3-7.4-2.8 1.4-15.2 8.4-27.5 15.5l-22.3 13-22.7-22.5C316.5 7.3 314 5.1 308.5 3 301.1.3 290.1-.5 284 1.3zm16.5 22.6c5 2.4 39.4 36.7 38 37.9-.6.5-48.5 28.3-106.5 61.7-58 33.5-106.6 61.5-108 62.3-1.4.9 33.7-34.8 78-79.2 55.2-55.4 81.8-81.4 84.5-82.7 5.1-2.4 8.9-2.4 14 0zm133.8 17.5c1.8.7 4.2 2.4 5.4 3.7 2.5 2.9 84.6 144.9 84 145.5-.2.2-81.9.3-181.5.2l-181.1-.3L286.6 118c69.1-39.9 127.8-73.7 130.6-75.3 5.7-3 11.9-3.5 17.1-1.3zM59 137.5c0 .3-1.1 2.7-2.4 5.3-3.5 6.9-4.8 12.5-4.8 21.3 0 20.4 11.9 37.8 31.3 46.1l5.4 2.3 241 .5 241 .5 6.7 3.3c7.2 3.5 11.3 7.7 15 15.2 2.2 4.3 2.3 5.6 2.6 36.7l.3 32.3H559c-33.9 0-36.4.1-42.2 2.1-11.8 4-20.6 11.5-26.1 22.4-4.6 9.2-4.9 13.1-4.5 56.5.3 39.7.4 40.6 2.6 46.1 3.3 8 10.3 16.4 17.4 21 10.9 7 12 7.2 52.6 7.7l36.3.4-.3 37.2-.3 37.2-2.7 4.1c-1.6 2.4-4.4 4.9-7 6.2l-4.4 2.1H365v-64.5l4.7-2.5c12.5-6.6 29.5-22.1 38-34.6 23-33.9 26.1-77.7 8.1-113.9-13.4-26.9-37.1-47.4-65.8-56.9-14-4.6-24.2-6-40.3-5.3-28.9 1.1-55.4 12.9-75.7 33.7-13.1 13.3-23.7 32.2-28.7 50.7-2.4 8.9-2.7 11.4-2.7 27.8.1 16.3.3 19 2.7 28 3.6 13.5 12.8 31.7 21.3 42.4 7.9 9.8 19.8 20.2 30 26.2l7.4 4.4V544H157c-116.1 0-110.9.2-116.8-5.3-5.5-5.1-5.2 7.7-5.2-197.7 0-158.8.2-190.6 1.4-193.3 1.8-4.2 5.5-7.5 10.3-9.2 3.7-1.4 12.3-2 12.3-1zm80 .2c0 1.4-49.4 50.3-50.8 50.3-2.3 0-10.5-8.4-12.5-12.9-6.6-15 2.6-33.2 18.8-37.2 4-.9 44.5-1.1 44.5-.2zm447.7 2.5c2.4 1.6 4.9 4.4 6.2 7 2 4.2 2.1 6 2.1 29.2 0 13.6-.3 24.6-.7 24.4-16.6-8.3-22.1-9.8-36.4-9.8h-7.5l-15.2-26.3c-8.4-14.5-15.2-26.7-15.2-27.1 0-.4 14.1-.6 31.3-.4l31.4.3 4 2.7zm66 145.9c4 1.5 8.2 5.7 10.4 10.4 1.7 3.7 1.9 7.7 1.9 61.4 0 40.1-.3 58.5-1.1 61.2-1.6 5.2-6.1 10.3-11.2 12.8-4.2 2.1-5.5 2.1-65.5 2.1-68.1 0-65.2.3-72.5-6.8-6.3-6.2-6.7-8.8-6.7-48.4 0-23.2.4-36.5 1.2-39.5 1.5-6 8.7-13.7 14.3-15.2 2.6-.7 18.3-1.1 44.5-1.1 38.7 0 40.6-.1 43.8-2 1.8-1.1 3.7-3.2 4.2-4.6.6-1.4 1-9 1-17V285h16.4c9.2 0 17.7.5 19.3 1.1zm-319.9 3.5c22.5 4.6 44.2 19 57.2 37.9 17.7 25.8 20.4 62.8 6.5 90.6-7 14-18.7 27.5-30.8 35.8-24.2 16.5-56.5 20-84.4 9.1-14.9-5.7-29.6-17-39.2-29.9-6-8.1-13.2-22.9-15.6-32.1-2.3-9-3.1-27.2-1.6-36.6 5.3-32.8 28.1-60 60.1-71.8 12.6-4.7 33.5-6 47.8-3zm-38.5 199.9c12.5 2.4 34.4 1.9 45.9-1l2.8-.7.2 58.2.3 58.2 3.3 2.9 3.2 2.9h31.5l-33.3 33.2-33.2 33.3-33.2-33.3-33.3-33.2h14.8c15.3 0 17.8-.5 20.9-4.4 1.6-1.9 1.8-6.6 1.8-59.9 0-31.7.1-57.7.3-57.7.1 0 3.7.7 8 1.5z" />
    <path
        d="M547.2 352.1c-3.4 1.6-7.3 4.5-8.8 6.2-8.9 10.5-10 25.3-2.8 36.8 9.6 15.3 32.6 17.8 45.4 5 6.3-6.4 8.3-11 8.8-20.3.3-6.5 0-8.5-2-13-3.5-7.6-7-11.2-14-14.7-5.1-2.6-7.3-3.1-13.3-3.1-6 0-8.2.5-13.3 3.1zm18.5 21.1c5 4.7 1.7 12.8-5.2 12.8-4.5 0-7.5-2.9-7.5-7.2 0-6.8 7.8-10.2 12.7-5.6zM272.4 319c-2.6 1-6.2 5.5-7 8.6-1 3.7 1.5 9.4 5 11.5 2.6 1.6 5 1.9 15.9 1.9 7.1 0 14.8.5 17.1 1.1 4.3 1.1 11.6 6.1 11.6 8 0 .5-8.6.9-20.5.9-23 0-25.1.5-27.9 6.4-2.2 4.6-2 6.7.7 10.7 3.7 5.6 5.2 5.9 27.5 5.9 22.4 0 22.9.2 15.3 5.5-4.2 3-4.4 3-20.5 3.5-18.2.6-20.6 1.3-23.2 7.7-2.9 6.7-2 8 23.4 33.5 12.9 13 24.8 24.2 26.4 24.9 5.8 2.4 12.3-.9 14.8-7.5 2.1-5.6.4-8.4-13.1-22.2L305 406.3l5.8-1.6c11.9-3.3 23.9-14.1 28.2-25.4l1.8-4.8 7.8-.5c4.4-.3 8.9-1.1 10.1-1.8 6.1-3.5 6.9-13.5 1.3-18.5-2.8-2.5-3.7-2.7-10.9-2.7h-7.8l-1.7-4.3c-.9-2.3-1.6-4.6-1.6-5 0-.4 4.3-.7 9.6-.7 9.6 0 9.6 0 13-3.4 3.9-3.9 4.5-8.6 1.8-13.7-2.9-5.7-4.4-5.9-48.1-5.8-21.9 0-40.8.4-41.9.9z" />
</svg>